<svg width="125" height="25" viewBox="0 0 137 37" fill="none" xmlns="http://www.w3.org/2000/svg">
<path d="M136 21.2448C124.586 32.3794 89.4781 47.9679 40.3586 21.2448L1 1H84.8338L99.3965 21.2448H136Z" fill="white"/>
<path fill-rule="evenodd" clip-rule="evenodd" d="M0.0280543 0.76469C0.136684 0.316009 0.538331 0 0.999975 0H84.8338C85.1556 0 85.4577 0.154839 85.6456 0.416053L99.909 20.2448H136C136.407 20.2448 136.773 20.4911 136.926 20.8678C137.08 21.2445 136.989 21.6766 136.698 21.9606C124.949 33.4221 89.3628 49.0388 39.8908 22.1287L0.542569 1.88926C0.132049 1.6781 -0.0805751 1.21337 0.0280543 0.76469ZM133.386 22.2448C120.92 32.5643 88.7879 44.8618 44.4021 22.2448H133.386ZM44.9692 20.2448L84.5012 2.25012L97.4453 20.2448H44.9692ZM80.2232 2H5.13035L40.3852 20.1339L80.2232 2Z" fill="#8482EE"/>
</svg>
